<mxfile host="app.diagrams.net" modified="2024-05-02T19:11:03.046Z" agent="Mozilla/5.0 (Windows NT 10.0; Win64; x64) AppleWebKit/537.36 (KHTML, like Gecko) Chrome/124.0.0.0 Safari/537.36" etag="_w225YpvuQuUpmvR_pd_" version="24.3.1" type="device">
  <diagram name="PÃ¡gina-1" id="6K3RJz6S_mp3MB6sxwo9">
    <mxGraphModel dx="1134" dy="600" grid="1" gridSize="10" guides="1" tooltips="1" connect="1" arrows="1" fold="1" page="1" pageScale="1" pageWidth="827" pageHeight="1169" math="0" shadow="0">
      <root>
        <mxCell id="0" />
        <mxCell id="1" parent="0" />
        <mxCell id="zPYoIdQybD7q7EmjkkH--25" style="edgeStyle=orthogonalEdgeStyle;rounded=0;orthogonalLoop=1;jettySize=auto;html=1;entryX=0;entryY=0.75;entryDx=0;entryDy=0;startArrow=diamond;startFill=0;" edge="1" parent="1" source="zPYoIdQybD7q7EmjkkH--1" target="zPYoIdQybD7q7EmjkkH--11">
          <mxGeometry relative="1" as="geometry" />
        </mxCell>
        <mxCell id="zPYoIdQybD7q7EmjkkH--30" style="edgeStyle=orthogonalEdgeStyle;rounded=0;orthogonalLoop=1;jettySize=auto;html=1;entryX=0;entryY=0.5;entryDx=0;entryDy=0;dashed=1;" edge="1" parent="1" source="zPYoIdQybD7q7EmjkkH--1" target="zPYoIdQybD7q7EmjkkH--11">
          <mxGeometry relative="1" as="geometry">
            <Array as="points">
              <mxPoint x="520" y="280" />
              <mxPoint x="520" y="130" />
            </Array>
          </mxGeometry>
        </mxCell>
        <mxCell id="zPYoIdQybD7q7EmjkkH--1" value="Vuelo" style="swimlane;whiteSpace=wrap;html=1;" vertex="1" parent="1">
          <mxGeometry x="20" y="40" width="380" height="370" as="geometry" />
        </mxCell>
        <mxCell id="zPYoIdQybD7q7EmjkkH--2" value="- cod : &lt;b&gt;int&lt;/b&gt;&lt;div&gt;- destino : &lt;b&gt;String&lt;/b&gt;&lt;/div&gt;&lt;div&gt;- fecha : &lt;b&gt;Fecha&lt;/b&gt;&lt;/div&gt;&lt;div&gt;- hora : &lt;b&gt;int&lt;/b&gt;&lt;/div&gt;&lt;div&gt;- costo : &lt;b&gt;float&lt;/b&gt;&lt;/div&gt;&lt;div&gt;- cant : &lt;b&gt;int&lt;/b&gt;&lt;/div&gt;" style="text;html=1;align=left;verticalAlign=middle;resizable=0;points=[];autosize=1;strokeColor=none;fillColor=none;" vertex="1" parent="zPYoIdQybD7q7EmjkkH--1">
          <mxGeometry y="20" width="110" height="100" as="geometry" />
        </mxCell>
        <mxCell id="zPYoIdQybD7q7EmjkkH--4" value="+ Vuelo()&lt;div&gt;+ Vuelo(&lt;b&gt;int &lt;/b&gt;cod, &lt;b&gt;String &lt;/b&gt;des, &lt;b&gt;Fecha&lt;/b&gt;&amp;nbsp;fech, &lt;b&gt;int &lt;/b&gt;ho, &lt;b&gt;float&lt;/b&gt;&amp;nbsp;cos, &lt;b&gt;int &lt;/b&gt;can)&lt;/div&gt;&lt;div&gt;+ setCod(&lt;b&gt;int cod&lt;/b&gt;)&lt;/div&gt;&lt;div&gt;+ setDestino(&lt;b&gt;String &lt;/b&gt;destino)&lt;/div&gt;&lt;div&gt;+ setFecha(&lt;b&gt;Fecha &lt;/b&gt;fecha)&lt;/div&gt;&lt;div&gt;+ setHora(&lt;b&gt;int&lt;/b&gt;&amp;nbsp;hora)&lt;/div&gt;&lt;div&gt;+ setCosto(&lt;b&gt;Float&lt;/b&gt;&amp;nbsp;costo)&lt;/div&gt;&lt;div&gt;+ setCant(&lt;b&gt;int &lt;/b&gt;cant)&lt;/div&gt;" style="text;html=1;align=left;verticalAlign=middle;resizable=0;points=[];autosize=1;strokeColor=none;fillColor=none;" vertex="1" parent="zPYoIdQybD7q7EmjkkH--1">
          <mxGeometry y="130" width="380" height="130" as="geometry" />
        </mxCell>
        <mxCell id="zPYoIdQybD7q7EmjkkH--3" value="" style="endArrow=none;html=1;rounded=0;" edge="1" parent="zPYoIdQybD7q7EmjkkH--1">
          <mxGeometry width="50" height="50" relative="1" as="geometry">
            <mxPoint y="120" as="sourcePoint" />
            <mxPoint x="380" y="120" as="targetPoint" />
          </mxGeometry>
        </mxCell>
        <mxCell id="zPYoIdQybD7q7EmjkkH--11" value="Fecha" style="swimlane;whiteSpace=wrap;html=1;" vertex="1" parent="1">
          <mxGeometry x="580" y="30" width="200" height="200" as="geometry" />
        </mxCell>
        <mxCell id="zPYoIdQybD7q7EmjkkH--12" value="&lt;div style=&quot;&quot;&gt;&lt;span style=&quot;background-color: initial;&quot;&gt;- dia : &lt;/span&gt;&lt;b style=&quot;background-color: initial;&quot;&gt;int&lt;/b&gt;&lt;/div&gt;&lt;div&gt;- mes : &lt;b&gt;int&lt;/b&gt;&lt;/div&gt;&lt;div style=&quot;&quot;&gt;- anio : &lt;b&gt;int&amp;nbsp;&lt;/b&gt;&lt;/div&gt;" style="text;html=1;align=left;verticalAlign=middle;resizable=0;points=[];autosize=1;strokeColor=none;fillColor=none;" vertex="1" parent="zPYoIdQybD7q7EmjkkH--11">
          <mxGeometry y="20" width="80" height="60" as="geometry" />
        </mxCell>
        <mxCell id="zPYoIdQybD7q7EmjkkH--24" style="edgeStyle=orthogonalEdgeStyle;rounded=0;orthogonalLoop=1;jettySize=auto;html=1;entryX=1;entryY=0.25;entryDx=0;entryDy=0;startArrow=diamond;startFill=0;" edge="1" parent="1" source="zPYoIdQybD7q7EmjkkH--13" target="zPYoIdQybD7q7EmjkkH--1">
          <mxGeometry relative="1" as="geometry" />
        </mxCell>
        <mxCell id="zPYoIdQybD7q7EmjkkH--28" style="edgeStyle=orthogonalEdgeStyle;rounded=0;orthogonalLoop=1;jettySize=auto;html=1;entryX=1;entryY=0.5;entryDx=0;entryDy=0;" edge="1" parent="1" source="zPYoIdQybD7q7EmjkkH--13" target="zPYoIdQybD7q7EmjkkH--13">
          <mxGeometry relative="1" as="geometry">
            <mxPoint x="740" y="390.0000000000001" as="targetPoint" />
          </mxGeometry>
        </mxCell>
        <mxCell id="zPYoIdQybD7q7EmjkkH--29" style="edgeStyle=orthogonalEdgeStyle;rounded=0;orthogonalLoop=1;jettySize=auto;html=1;dashed=1;exitX=0.75;exitY=1;exitDx=0;exitDy=0;" edge="1" parent="1" source="zPYoIdQybD7q7EmjkkH--13">
          <mxGeometry relative="1" as="geometry">
            <mxPoint x="760" y="430" as="targetPoint" />
            <Array as="points">
              <mxPoint x="700" y="500" />
              <mxPoint x="800" y="500" />
              <mxPoint x="800" y="430" />
            </Array>
          </mxGeometry>
        </mxCell>
        <mxCell id="zPYoIdQybD7q7EmjkkH--13" value="Nodo" style="swimlane;whiteSpace=wrap;html=1;" vertex="1" parent="1">
          <mxGeometry x="550" y="270" width="200" height="200" as="geometry" />
        </mxCell>
        <mxCell id="zPYoIdQybD7q7EmjkkH--14" value="- info : &lt;b&gt;Vuelo&lt;/b&gt;&lt;div&gt;- ps : &lt;b&gt;Nodo&lt;/b&gt;&lt;/div&gt;" style="text;html=1;align=left;verticalAlign=middle;resizable=0;points=[];autosize=1;strokeColor=none;fillColor=none;" vertex="1" parent="zPYoIdQybD7q7EmjkkH--13">
          <mxGeometry y="25" width="90" height="40" as="geometry" />
        </mxCell>
        <mxCell id="zPYoIdQybD7q7EmjkkH--23" style="edgeStyle=orthogonalEdgeStyle;rounded=0;orthogonalLoop=1;jettySize=auto;html=1;entryX=0;entryY=0.75;entryDx=0;entryDy=0;endArrow=classic;endFill=1;startArrow=diamond;startFill=1;" edge="1" parent="1" source="zPYoIdQybD7q7EmjkkH--16" target="zPYoIdQybD7q7EmjkkH--13">
          <mxGeometry relative="1" as="geometry">
            <Array as="points">
              <mxPoint x="450" y="420" />
              <mxPoint x="530" y="420" />
            </Array>
          </mxGeometry>
        </mxCell>
        <mxCell id="zPYoIdQybD7q7EmjkkH--31" style="edgeStyle=orthogonalEdgeStyle;rounded=0;orthogonalLoop=1;jettySize=auto;html=1;entryX=0.25;entryY=1;entryDx=0;entryDy=0;dashed=1;" edge="1" parent="1" source="zPYoIdQybD7q7EmjkkH--16" target="zPYoIdQybD7q7EmjkkH--13">
          <mxGeometry relative="1" as="geometry" />
        </mxCell>
        <mxCell id="zPYoIdQybD7q7EmjkkH--16" value="Lista" style="swimlane;whiteSpace=wrap;html=1;" vertex="1" parent="1">
          <mxGeometry x="314" y="510" width="200" height="200" as="geometry" />
        </mxCell>
        <mxCell id="zPYoIdQybD7q7EmjkkH--17" value="- list &lt;b&gt;: Nodo&lt;/b&gt;" style="text;html=1;align=left;verticalAlign=middle;resizable=0;points=[];autosize=1;strokeColor=none;fillColor=none;" vertex="1" parent="zPYoIdQybD7q7EmjkkH--16">
          <mxGeometry y="20" width="90" height="30" as="geometry" />
        </mxCell>
        <mxCell id="zPYoIdQybD7q7EmjkkH--27" style="edgeStyle=orthogonalEdgeStyle;rounded=0;orthogonalLoop=1;jettySize=auto;html=1;entryX=0;entryY=0.5;entryDx=0;entryDy=0;startArrow=diamond;startFill=0;" edge="1" parent="1" source="zPYoIdQybD7q7EmjkkH--19" target="zPYoIdQybD7q7EmjkkH--21">
          <mxGeometry relative="1" as="geometry">
            <Array as="points">
              <mxPoint x="150" y="780" />
              <mxPoint x="282" y="780" />
              <mxPoint x="282" y="830" />
            </Array>
          </mxGeometry>
        </mxCell>
        <mxCell id="zPYoIdQybD7q7EmjkkH--19" value="Principal" style="swimlane;whiteSpace=wrap;html=1;" vertex="1" parent="1">
          <mxGeometry x="50" y="490" width="200" height="200" as="geometry" />
        </mxCell>
        <mxCell id="zPYoIdQybD7q7EmjkkH--20" value="- Lo : &lt;b&gt;Lista()&lt;/b&gt;" style="text;html=1;align=left;verticalAlign=middle;resizable=0;points=[];autosize=1;strokeColor=none;fillColor=none;" vertex="1" parent="zPYoIdQybD7q7EmjkkH--19">
          <mxGeometry y="20" width="90" height="30" as="geometry" />
        </mxCell>
        <mxCell id="zPYoIdQybD7q7EmjkkH--26" style="edgeStyle=orthogonalEdgeStyle;rounded=0;orthogonalLoop=1;jettySize=auto;html=1;entryX=0.5;entryY=1;entryDx=0;entryDy=0;endArrow=block;endFill=0;" edge="1" parent="1" source="zPYoIdQybD7q7EmjkkH--21" target="zPYoIdQybD7q7EmjkkH--16">
          <mxGeometry relative="1" as="geometry" />
        </mxCell>
        <mxCell id="zPYoIdQybD7q7EmjkkH--21" value="ListaOrdenada" style="swimlane;whiteSpace=wrap;html=1;" vertex="1" parent="1">
          <mxGeometry x="314" y="730" width="200" height="200" as="geometry" />
        </mxCell>
        <mxCell id="zPYoIdQybD7q7EmjkkH--22" value="- list &lt;b&gt;: Nodo&lt;/b&gt;" style="text;html=1;align=left;verticalAlign=middle;resizable=0;points=[];autosize=1;strokeColor=none;fillColor=none;" vertex="1" parent="zPYoIdQybD7q7EmjkkH--21">
          <mxGeometry y="20" width="90" height="30" as="geometry" />
        </mxCell>
      </root>
    </mxGraphModel>
  </diagram>
</mxfile>
